HIERARCHY
ROOT Hips
{
	OFFSET 0.00000 0.00000 0.00000
	CHANNELS 6 Xposition Yposition Zposition Zrotation Yrotation Xrotation 
	JOINT LHipJoint
	{
		OFFSET 0 0 0
		CHANNELS 3 Zrotation Yrotation Xrotation
		JOINT LeftUpLeg
		{
			OFFSET 1.26600 -1.82114 0.91038
			CHANNELS 3 Zrotation Yrotation Xrotation
			JOINT LeftLeg
			{
				OFFSET 2.50076 -6.87080 0.00000
				CHANNELS 3 Zrotation Yrotation Xrotation
				JOINT LeftFoot
				{
					OFFSET 2.57364 -7.07102 0.00000
					CHANNELS 3 Zrotation Yrotation Xrotation
					JOINT LeftToeBase
					{
						OFFSET 0.13572 -0.37290 1.97004
						CHANNELS 3 Zrotation Yrotation Xrotation
						End Site
						{
							OFFSET 0.00000 -0.00000 1.01383
						}
					}
				}
			}
		}
	}
	JOINT RHipJoint
	{
		OFFSET 0 0 0
		CHANNELS 3 Zrotation Yrotation Xrotation
		JOINT RightUpLeg
		{
			OFFSET -1.20803 -1.82114 0.91038
			CHANNELS 3 Zrotation Yrotation Xrotation
			JOINT RightLeg
			{
				OFFSET -2.54916 -7.00377 0.00000
				CHANNELS 3 Zrotation Yrotation Xrotation
				JOINT RightFoot
				{
					OFFSET -2.56374 -7.04382 0.00000
					CHANNELS 3 Zrotation Yrotation Xrotation
					JOINT RightToeBase
					{
						OFFSET -0.23520 -0.64621 2.09921
						CHANNELS 3 Zrotation Yrotation Xrotation
						End Site
						{
							OFFSET -0.00000 -0.00000 1.10065
						}
					}
				}
			}
		}
	}
	JOINT LowerBack
	{
		OFFSET 0 0 0
		CHANNELS 3 Zrotation Yrotation Xrotation
		JOINT Spine
		{
			OFFSET 0.05492 2.10797 -0.12074
			CHANNELS 3 Zrotation Yrotation Xrotation
			JOINT Spine1
			{
				OFFSET 0.04577 2.11592 -0.04483
				CHANNELS 3 Zrotation Yrotation Xrotation
				JOINT Neck
				{
					OFFSET 0 0 0
					CHANNELS 3 Zrotation Yrotation Xrotation
					JOINT Neck1
					{
						OFFSET -0.10759 1.80167 0.15770
						CHANNELS 3 Zrotation Yrotation Xrotation
						JOINT Head
						{
							OFFSET 0.09237 1.77509 -0.40848
							CHANNELS 3 Zrotation Yrotation Xrotation
							End Site
							{
								OFFSET 0.03805 1.84093 -0.15754
							}
						}
					}
				}
				JOINT LeftShoulder
				{
					OFFSET 0 0 0
					CHANNELS 3 Zrotation Yrotation Xrotation
					JOINT LeftArm
					{
						OFFSET 3.42372 1.09575 -0.28209
						CHANNELS 3 Zrotation Yrotation Xrotation
						JOINT LeftForeArm
						{
							OFFSET 4.95681 -0.00000 0.00000
							CHANNELS 3 Zrotation Yrotation Xrotation
							JOINT LeftHand
							{
								OFFSET 3.40915 -0.00000 0.00000
								CHANNELS 3 Zrotation Yrotation Xrotation
								JOINT LeftFingerBase
								{
									OFFSET 0 0 0
									CHANNELS 3 Zrotation Yrotation Xrotation
									JOINT LeftHandIndex1
									{
										OFFSET 0.61640 -0.00000 0.00000
										CHANNELS 3 Zrotation Yrotation Xrotation
										End Site
										{
											OFFSET 0.49696 -0.00000 0.00000
										}
									}
								}
								JOINT LThumb
								{
									OFFSET 0 0 0
									CHANNELS 3 Zrotation Yrotation Xrotation
									End Site
									{
										OFFSET 0.50455 -0.00000 0.50455
									}
								}
							}
						}
					}
				}
				JOINT RightShoulder
				{
					OFFSET 0 0 0
					CHANNELS 3 Zrotation Yrotation Xrotation
					JOINT RightArm
					{
						OFFSET -3.24731 1.15872 -0.32221
						CHANNELS 3 Zrotation Yrotation Xrotation
						JOINT RightForeArm
						{
							OFFSET -5.35200 -0.00000 0.00000
							CHANNELS 3 Zrotation Yrotation Xrotation
							JOINT RightHand
							{
								OFFSET -3.43721 -0.00000 -0.00000
								CHANNELS 3 Zrotation Yrotation Xrotation
								JOINT RightFingerBase
								{
									OFFSET 0 0 0
									CHANNELS 3 Zrotation Yrotation Xrotation
									JOINT RightHandIndex1
									{
										OFFSET -0.72009 -0.00000 0.00000
										CHANNELS 3 Zrotation Yrotation Xrotation
										End Site
										{
											OFFSET -0.58056 -0.00000 0.00000
										}
									}
								}
								JOINT RThumb
								{
									OFFSET 0 0 0
									CHANNELS 3 Zrotation Yrotation Xrotation
									End Site
									{
										OFFSET -0.58942 -0.00000 0.58942
									}
								}
							}
						}
					}
				}
			}
		}
	}
}
MOTION
Frames: 10
Frame Time: .0083333
-3.0021 17.4169 10.7928 0 0 0 0 0 0 -21 0 0 0 0 0 0 0 0 0 0 0 0 0 0 21 0 0 0 0 0 0 0 0 0 0 0 0 0 0 0 0 0 0 0 0 0 0 -16 0 0 21 0 0 11 0 0 0 -8 0 0 0 0 0 0 0 0 0 0 0 0 0 0 0 0 0 0 0 0 8 0 0 0 0 0 0 0 0 0 0 0 0 0 0 0 0 0
-3.0021 17.4169 10.7928 -52.8030 85.0824 -51.2971 0.0000 0.0000 0.0000 -15.2925 -5.3801 -9.9914 3.3403 11.2265 33.0478 1.0017 -10.1144 -18.1760 0.3731 3.9231 10.8605 0.0000 0.0000 0.0000 24.1024 -2.8359 -13.7186 -3.8579 -11.9689 35.6221 -1.4959 8.4710 -21.8957 -0.3156 -3.6111 9.9849 2.7881 0.4863 4.4120 3.5124 0.8779 1.8479 2.0022 0.4747 -0.5892 -9.3275 -2.9352 -12.8295 3.3790 -1.3841 36.9783 2.9930 -0.9333 15.2134 -0.0000 -0.0000 0.0000 -90.5083 5.5916 15.5871 15.9753 -25.4872 -3.6353 -0.0000 0.0000 -1.8131 16.6498 19.5221 5.7070 -7.1250 0.0000 -0.0000 -11.5713 49.9318 -1.4237 -0.0000 -0.0000 0.0000 84.6447 5.0343 22.0926 -17.7474 27.8325 -4.4307 0.0000 -0.0000 -14.5936 -24.1097 14.0223 -6.1887 7.1250 -0.0000 -0.0000 2.2707 -14.6860 1.6222
-2.9999 17.4184 10.7922 -51.8972 85.1466 -50.3329 0.0000 0.0000 0.0000 -15.3875 -5.2215 -10.0806 3.3248 11.2031 32.9681 0.9865 -10.1706 -18.0580 0.3343 3.7159 10.2786 0.0000 0.0000 0.0000 23.9807 -2.7962 -13.7887 -3.8735 -11.9901 35.6969 -1.5091 8.6249 -21.9971 -0.3011 -3.5281 9.7528 2.6894 0.4640 4.3683 3.4739 0.8403 1.8256 2.0199 0.4547 -0.5880 -9.4038 -2.9324 -12.9064 3.4176 -1.3640 37.0193 3.0278 -0.9320 15.2519 -0.0000 -0.0000 0.0000 -90.3778 5.5910 16.0949 16.2148 -25.8110 -3.7390 -0.0000 0.0000 -2.1213 16.8870 19.9127 5.9031 -7.1250 0.0000 -0.0000 -11.4813 50.3625 -1.5351 -0.0000 -0.0000 0.0000 84.6465 5.0081 22.1348 -17.6713 27.7342 -4.3952 0.0000 -0.0000 -14.8818 -23.9491 14.1004 -6.1758 7.1250 -0.0000 -0.0000 2.3852 -14.6207 1.7074
-3.0013 17.4201 10.7933 -50.8268 85.3500 -49.2013 0.0000 0.0000 0.0000 -15.6082 -5.2480 -10.1346 3.3092 11.1795 32.8878 0.9663 -10.3011 -17.9111 0.3283 3.6823 10.1847 0.0000 0.0000 0.0000 23.7466 -2.7302 -13.8736 -3.8902 -12.0128 35.7773 -1.4996 8.8186 -21.9351 -0.3931 -4.0257 11.1491 2.4893 0.4328 4.3723 3.3867 0.7880 1.7722 2.0442 0.4258 -0.6457 -9.4769 -2.9123 -12.8855 3.5442 -1.3625 37.0149 3.0950 -0.9246 15.2458 0.0000 0.0000 0.0000 -90.2599 5.5462 16.4946 16.3947 -26.0528 -3.8176 -0.0000 0.0000 -2.3491 17.4664 20.1225 6.1782 -7.1250 0.0000 -0.0000 -10.9956 50.6672 -1.5517 0.0000 0.0000 0.0000 84.6846 4.9248 22.2303 -17.6037 27.6468 -4.3638 0.0000 -0.0000 -15.1145 -24.1585 14.0664 -6.2217 7.1250 -0.0000 -0.0000 2.2404 -14.6325 1.6030
-3.0007 17.4188 10.7915 -49.7102 85.4669 -48.1006 0.0000 0.0000 0.0000 -15.7888 -5.3256 -10.0450 3.2977 11.1621 32.8286 0.9660 -10.2940 -17.9073 0.3338 3.7132 10.2711 0.0000 0.0000 0.0000 23.5690 -2.7482 -13.8902 -3.9021 -12.0290 35.8345 -1.4974 8.9221 -21.9235 -0.4545 -4.3251 11.9932 2.3179 0.4065 4.4459 3.3546 0.7483 1.7356 2.1083 0.4042 -0.7256 -9.4381 -2.8806 -12.8915 3.5096 -1.3085 37.0633 3.0841 -0.9010 15.2652 0.0000 0.0000 0.0000 -90.1057 5.5322 17.0683 16.5606 -26.2748 -3.8908 -0.0000 0.0000 -2.6736 17.7496 19.9446 6.2313 -7.1250 0.0000 -0.0000 -10.6584 50.5332 -1.4678 0.0000 0.0000 0.0000 84.6689 4.7804 22.3524 -17.5558 27.5846 -4.3416 0.0000 -0.0000 -15.2458 -24.5232 13.7924 -6.2073 7.1250 -0.0000 -0.0000 1.9735 -14.8859 1.4012
-2.9937 17.4173 10.7889 -49.5549 85.3522 -47.9700 0.0000 0.0000 0.0000 -15.7385 -5.2918 -9.9251 3.2880 11.1472 32.7780 0.9880 -10.1619 -18.0696 0.3294 3.6888 10.2028 0.0000 0.0000 0.0000 23.6191 -2.8858 -13.9070 -3.9105 -12.0404 35.8749 -1.4947 9.0420 -21.9091 -0.4403 -4.2575 11.8022 2.3163 0.3871 4.4637 3.4209 0.7265 1.7089 2.1785 0.3935 -0.7634 -9.3861 -2.8331 -12.8687 3.3924 -1.2066 37.0990 3.0428 -0.8660 15.2675 0.0000 0.0000 0.0000 -90.1084 5.5631 17.3526 16.7368 -26.5095 -3.9692 -0.0000 0.0000 -2.7361 17.3800 19.9074 6.0834 -7.1250 0.0000 -0.0000 -11.0033 50.4360 -1.4898 0.0000 0.0000 0.0000 84.5995 4.6563 22.3657 -17.4393 27.4333 -4.2878 0.0000 -0.0000 -15.0500 -24.5023 13.6541 -6.1408 7.1250 -0.0000 -0.0000 1.9788 -15.0384 1.3984
-2.9851 17.4191 10.7877 -49.1885 85.2972 -47.5099 0.0000 0.0000 0.0000 -15.7306 -5.2674 -9.9758 3.2847 11.1423 32.7613 1.0109 -10.0073 -18.2362 0.2869 3.4445 9.5188 0.0000 0.0000 0.0000 23.6266 -2.9361 -14.0092 -3.9105 -12.0404 35.8751 -1.4827 9.1426 -21.8270 -0.4262 -4.1899 11.6116 2.2741 0.3747 4.3231 3.4516 0.7031 1.6672 2.2359 0.3815 -0.7281 -9.3846 -2.7859 -12.8012 3.3494 -1.1297 37.0545 3.0346 -0.8383 15.2228 -0.0000 -0.0000 0.0000 -90.1599 5.5424 17.3994 16.9099 -26.7388 -4.0467 -0.0000 0.0000 -2.8030 17.4685 20.1259 6.1800 -7.1250 0.0000 -0.0000 -10.9947 50.6710 -1.5526 -0.0000 -0.0000 0.0000 84.5801 4.5998 22.2490 -17.2889 27.2371 -4.2187 0.0000 -0.0000 -14.8679 -24.4324 13.5463 -6.0741 7.1250 -0.0000 -0.0000 2.0196 -15.1636 1.4219
-2.9828 17.4214 10.7888 -48.4105 85.3669 -46.6292 0.0000 0.0000 0.0000 -15.8269 -5.3924 -10.0595 3.2873 11.1463 32.7748 1.0122 -9.9743 -18.2419 0.2931 3.4816 9.6226 0.0000 0.0000 0.0000 23.5585 -2.7832 -14.0630 -3.9039 -12.0314 35.8431 -1.5147 8.8053 -22.0446 -0.3131 -3.5973 9.9463 2.1506 0.3871 4.2459 3.4138 0.7099 1.6209 2.2662 0.3835 -0.7336 -9.4363 -2.7938 -12.8006 3.4132 -1.1522 37.0397 3.0667 -0.8467 15.2183 0.0000 -0.0000 0.0000 -90.0649 5.4753 17.8064 17.1274 -27.0254 -4.1451 -0.0000 0.0000 -3.2326 17.8273 20.3587 6.3837 -7.1250 0.0000 -0.0000 -10.7290 50.9653 -1.5925 0.0000 -0.0000 0.0000 84.6708 4.5455 21.9644 -17.1471 27.0513 -4.1540 0.0000 -0.0000 -14.7280 -24.6811 13.4299 -6.0923 7.1250 -0.0000 -0.0000 1.8417 -15.2609 1.2926
-2.9830 17.4205 10.7899 -49.1793 85.3157 -47.3673 0.0000 0.0000 0.0000 -15.7435 -5.5950 -10.0379 3.2943 11.1569 32.8109 1.0167 -9.8562 -18.2608 0.3363 3.7268 10.3094 0.0000 0.0000 0.0000 23.6838 -2.6190 -14.0229 -3.8922 -12.0156 35.7873 -1.5523 8.4213 -22.3063 -0.2323 -3.1018 8.5624 2.1861 0.3670 4.2788 3.4434 0.6884 1.5850 2.2774 0.3728 -0.7884 -9.4645 -2.7806 -12.8032 3.4460 -1.1364 37.0443 3.0885 -0.8397 15.2202 -0.0000 0.0000 0.0000 -90.0222 5.4189 18.1576 17.3444 -27.3096 -4.2441 -0.0000 0.0000 -3.5106 17.4484 20.3529 6.2386 -7.1250 0.0000 -0.0000 -11.0956 50.8969 -1.6293 -0.0000 0.0000 0.0000 84.7045 4.4305 21.7841 -17.0389 26.9090 -4.1049 0.0000 -0.0000 -14.5138 -24.5789 13.5010 -6.0952 7.1250 -0.0000 -0.0000 1.9163 -15.1957 1.3478
-2.9780 17.4204 10.7893 -50.9429 85.2388 -49.0588 0.0000 0.0000 0.0000 -15.5790 -5.6922 -10.0920 3.3078 11.1773 32.8803 1.0240 -9.8215 -18.3171 0.3237 3.6567 10.1128 0.0000 0.0000 0.0000 23.8342 -2.6287 -14.0313 -3.8759 -11.9934 35.7088 -1.5310 8.6060 -22.1565 -0.3046 -3.5483 9.8091 2.3239 0.3233 4.1903 3.4777 0.6344 1.5533 2.2386 0.3465 -0.7691 -9.2897 -2.7429 -12.7560 3.3380 -1.0963 37.0318 3.0172 -0.8123 15.1953 -0.0000 -0.0000 0.0000 -90.0235 5.3086 18.2825 17.4721 -27.4760 -4.3029 -0.0000 0.0000 -3.3985 16.9633 20.2472 6.0260 -7.1250 0.0000 -0.0000 -11.5281 50.7113 -1.6412 -0.0000 -0.0000 0.0000 84.8047 4.3297 21.3832 -16.9228 26.7559 -4.0525 0.0000 -0.0000 -14.1858 -24.2571 13.7401 -6.1091 7.1250 -0.0000 -0.0000 2.1519 -14.9741 1.5239
